<?xml version="1.0" encoding="UTF-8" standalone="no"?>
<svg
   xmlns:dc="http://purl.org/dc/elements/1.1/"
   xmlns:cc="http://creativecommons.org/ns#"
   xmlns:rdf="http://www.w3.org/1999/02/22-rdf-syntax-ns#"
   xmlns:svg="http://www.w3.org/2000/svg"
   xmlns="http://www.w3.org/2000/svg"
   viewBox="0 0 147.5 147.5"
   height="147.5"
   width="147.5"
   xml:space="preserve"
   version="1.1"
   id="svg2"><metadata
     id="metadata8"><rdf:RDF><cc:Work
         rdf:about=""><dc:format>image/svg+xml</dc:format><dc:type
           rdf:resource="http://purl.org/dc/dcmitype/StillImage" /></cc:Work></rdf:RDF></metadata><defs
     id="defs6"><clipPath
       id="clipPath16"
       clipPathUnits="userSpaceOnUse"><path
         id="path18"
         d="M 27.534,118 C 12.39,118 0,105.61 0,90.467 l 0,0 0,-62.933 C 0,12.39 12.39,0 27.534,0 l 0,0 62.933,0 C 105.61,0 118,12.39 118,27.534 l 0,0 0,62.933 C 118,105.61 105.61,118 90.467,118 l 0,0 -62.933,0 z" /></clipPath><radialGradient
       id="radialGradient24"
       spreadMethod="pad"
       gradientTransform="matrix(74.571465,0,0,-74.571465,59.737499,83.583336)"
       gradientUnits="userSpaceOnUse"
       r="1"
       cy="0"
       cx="0"
       fy="0"
       fx="0"><stop
         id="stop26"
         offset="0"
         style="stop-opacity:1;stop-color:#5d5751" /><stop
         id="stop28"
         offset="0.46111108"
         style="stop-opacity:1;stop-color:#5d5751" /><stop
         id="stop30"
         offset="1"
         style="stop-opacity:1;stop-color:#44403a" /></radialGradient><clipPath
       id="clipPath38"
       clipPathUnits="userSpaceOnUse"><path
         id="path40"
         d="M 0,118 118,118 118,0 0,0 0,118 Z" /></clipPath></defs><g
     transform="matrix(1.25,0,0,-1.25,0,147.5)"
     id="g10"><g
       id="g12"><g
         clip-path="url(#clipPath16)"
         id="g14"><g
           id="g20"><g
             id="g22"><path
               id="path32"
               style="fill:url(#radialGradient24);stroke:none"
               d="M 27.534,118 C 12.39,118 0,105.61 0,90.467 l 0,0 0,-62.933 C 0,12.39 12.39,0 27.534,0 l 0,0 62.933,0 C 105.61,0 118,12.39 118,27.534 l 0,0 0,62.933 C 118,105.61 105.61,118 90.467,118 l 0,0 -62.933,0 z" /></g></g></g></g><g
       id="g34"><g
         clip-path="url(#clipPath38)"
         id="g36"><g
           transform="translate(50.2863,33.7768)"
           id="g42"><path
             id="path44"
             style="fill:#ffffff;fill-opacity:1;fill-rule:nonzero;stroke:none"
             d="m 0,0 c -0.262,-0.256 -0.382,-0.625 -0.32,-0.986 l 1.854,-10.813 -9.71,5.106 c -0.163,0.085 -0.341,0.127 -0.519,0.127 -0.178,0 -0.356,-0.042 -0.518,-0.127 l -9.71,-5.106 1.854,10.813 c 0.062,0.361 -0.057,0.73 -0.32,0.986 l -7.856,7.657 10.857,1.577 c 0.362,0.053 0.676,0.281 0.838,0.61 l 4.855,9.837 4.855,-9.837 c 0.163,-0.329 0.476,-0.557 0.839,-0.61 L 7.855,7.657 0,0 Z m 10.41,9.537 -12.511,1.818 -5.595,11.337 c -0.187,0.38 -0.575,0.621 -0.999,0.621 -0.424,0 -0.811,-0.241 -0.999,-0.621 L -15.288,11.355 -27.799,9.537 c -0.419,-0.061 -0.768,-0.355 -0.899,-0.758 -0.131,-0.404 -0.022,-0.846 0.282,-1.142 l 9.052,-8.824 -2.137,-12.46 c -0.071,-0.418 0.101,-0.84 0.444,-1.09 0.343,-0.249 0.798,-0.281 1.173,-0.084 l 11.189,5.883 11.19,-5.883 c 0.163,-0.086 0.341,-0.128 0.519,-0.128 0.23,0 0.46,0.072 0.655,0.212 0.342,0.25 0.514,0.672 0.443,1.09 l -2.137,12.46 9.052,8.824 c 0.304,0.296 0.413,0.738 0.282,1.142 -0.131,0.403 -0.48,0.697 -0.899,0.758" /></g><g
           transform="translate(85.6204,44.6806)"
           id="g46"><path
             id="path48"
             style="fill:#ffffff;fill-opacity:1;fill-rule:nonzero;stroke:none"
             d="m 0,0 c 0,-2.167 -1.763,-3.93 -3.93,-3.93 -2.167,0 -3.93,1.763 -3.93,3.93 0,2.167 1.763,3.93 3.93,3.93 C -1.763,3.93 0,2.167 0,0 m -3.829,11.948 c -0.542,1.223 -1.35,2.361 -2.547,3.18 -0.287,1.484 -0.176,3.676 1.231,6.699 1.8,1.598 4.394,5.437 2.809,9.908 2.266,5.223 3.35,15.973 -7.845,22.15 -0.033,0.018 -0.068,0.035 -0.103,0.05 -2.352,0.996 -11.184,1.47 -17.327,-5.939 -0.012,-0.014 -0.023,-0.029 -0.034,-0.044 -0.231,-0.308 -5.502,-7.529 -0.774,-15.964 -0.467,-1.745 -1.666,-7.569 2.311,-10.124 0.557,-0.773 2.017,-3.146 1.53,-6.196 -0.867,-0.888 -1.383,-2.253 -1.677,-3.75 -0.304,-0.129 -0.784,-0.298 -1.201,-0.443 -2.462,-0.858 -7.156,-2.499 -10.489,-6.732 l 1.113,-2.257 c 2.921,4.376 7.528,5.985 10.109,6.885 0.06,0.021 0.108,0.038 0.165,0.058 -0.096,-1.613 -0.027,-3.161 0.059,-4.241 -4.321,-0.247 -6.087,-2.391 -6.81,-4.068 l 2.295,-0.334 c 0.671,1.053 2.139,2.2 5.354,2.2 0.075,0 0.148,0.008 0.219,0.022 0.048,-0.007 0.094,-0.022 0.143,-0.022 5.639,0 5.91,-3.521 5.922,-3.899 l 0,-9.47 c 0,-0.615 0.499,-1.114 1.114,-1.114 0.615,0 1.114,0.499 1.114,1.114 l 0,9.482 c -0.001,0.058 -0.144,5.595 -7.143,6.081 -0.105,1.407 -0.146,3.741 0.14,5.729 4.051,6.084 0.537,11.355 -0.277,12.43 -0.089,0.127 -0.205,0.237 -0.347,0.321 -3.333,1.963 -1.403,8.068 -1.383,8.128 0.1,0.307 0.063,0.642 -0.103,0.918 -4.295,7.184 0.05,13.429 0.386,13.893 5.689,6.835 13.504,5.741 14.677,5.302 12.466,-6.926 6.891,-19.136 6.648,-19.651 -0.135,-0.285 -0.144,-0.615 -0.022,-0.907 1.875,-4.504 -2.022,-7.828 -2.187,-7.965 -0.125,-0.103 -0.226,-0.232 -0.296,-0.379 -2.201,-4.592 -1.833,-7.768 -1.137,-9.625 0.674,-1.796 1.808,-2.837 2.667,-3.229 0.472,-1.52 0.541,-3.12 0.528,-4.086 C -7.885,5.552 -10.088,3.031 -10.088,0 c 0,-3.395 2.762,-6.158 6.158,-6.158 3.396,0 6.158,2.763 6.158,6.158 0,2.997 -2.153,5.498 -4.994,6.044 0.011,0.823 -0.033,2.015 -0.275,3.3 C 7.737,5.395 8.588,-3.212 8.621,-3.607 8.67,-4.218 9.207,-4.681 9.817,-4.629 c 0.614,0.047 1.073,0.582 1.026,1.195 -0.036,0.468 -1.028,11.249 -14.672,15.382" /></g></g></g></g></svg>