<?xml version="1.0" encoding="utf-8"?>
<!-- Generator: Adobe Illustrator 16.0.0, SVG Export Plug-In . SVG Version: 6.00 Build 0)  -->
<!DOCTYPE svg PUBLIC "-//W3C//DTD SVG 1.1//EN" "http://www.w3.org/Graphics/SVG/1.1/DTD/svg11.dtd">
<svg version="1.1" xmlns="http://www.w3.org/2000/svg" xmlns:xlink="http://www.w3.org/1999/xlink" x="0px" y="0px" width="148px"
	 height="150px" viewBox="0 0 148 150" enable-background="new 0 0 148 150" xml:space="preserve">
<g id="Layer_8">
	<path fill="none" stroke="#FFF" stroke-width="3" stroke-miterlimit="10" d="M96.594,99.823c0-8.095-7.154-11.569-10.584-12.796
		c0,0-5.396-2.121-5.396-6.895c0-4.93,2.217-6.666,3.074-7.865c0,0,1.758-1.534,0.582-6.485c1.961-2.713,2.33-7.508,0.197-12.586
		c-1.34-3.188-2.523-4.934-4.326-5.948c-1.326-0.745-2.828-1.022-4.289-1.022c-2.723,0-5.305,0.961-6.335,1.633
		c-3.014,1.347-5.041,2.587-6.941,7.312c-1.542,3.836,0.314,8.278,1.28,10.442c-1.178,4.951,0.456,6.654,0.456,6.654
		c0.856,1.199,3.075,2.936,3.075,7.865c0,5.613-5.398,6.895-5.398,6.895c-3.429,1.227-10.582,4.701-10.582,12.796"/>
	<path fill-rule="evenodd" clip-rule="evenodd" fill="none" stroke="#FFF" stroke-width="3" stroke-miterlimit="10" d="
		M66.333,91.024v-7"/>
	<path fill-rule="evenodd" clip-rule="evenodd" fill="none" stroke="#FFF" stroke-width="3" stroke-miterlimit="10" d="
		M60.382,103.774v-8.161c0,0,0.364-3.741,6.725-3.741c0.15,0.13,5.179,1.354,5.179,3.741c0,2.385,0,8.161,0,8.161"/>
	<path fill-rule="evenodd" clip-rule="evenodd" fill="none" stroke="#FFF" stroke-width="3" stroke-miterlimit="10" d="
		M84.024,93.323c0,0,1.591-4.768-2-9"/>
	<path fill-rule="evenodd" clip-rule="evenodd" fill="none" stroke="#FFF" stroke-width="3" stroke-miterlimit="10" d="
		M84.2,93.323c2.485,0,4.5,2.015,4.5,4.5s-2.015,4.5-4.5,4.5s-4.5-2.015-4.5-4.5S81.715,93.323,84.2,93.323z"/>
</g>
</svg>
