<?xml version="1.0" encoding="utf-8"?>
<!-- Generator: Adobe Illustrator 16.0.0, SVG Export Plug-In . SVG Version: 6.00 Build 0)  -->
<!DOCTYPE svg PUBLIC "-//W3C//DTD SVG 1.1//EN" "http://www.w3.org/Graphics/SVG/1.1/DTD/svg11.dtd">
<svg version="1.1" id="Layer_1" xmlns="http://www.w3.org/2000/svg" xmlns:xlink="http://www.w3.org/1999/xlink" x="0px" y="0px"
	 width="612px" height="792px" viewBox="0 0 612 792" enable-background="new 0 0 612 792" xml:space="preserve">
<g id="XMLID_224_" display="none">
	<rect id="XMLID_225_" y="85.865" display="inline" fill="#92D5D6" width="620.271" height="620.27"/>
	<rect id="XMLID_255_" y="706.135" display="inline" fill="#D6BC92" width="620.271" height="620.271"/>
</g>
<path id="XMLID_8_" display="none" fill="#5D5E5E" d="M384.981,390.625l-5.79,15.713h-15.3l12.819,9.924l-5.789,17.368
	l14.473-10.752l14.473,10.752l-5.789-17.368l12.819-9.924h-15.714L384.981,390.625z M316.751,379.873l14.474-10.751l14.473,10.751
	l-5.789-17.368l12.818-9.924h-15.713l-5.789-15.713l-5.789,15.713h-15.301l12.819,9.924L316.751,379.873z M427.986,299.651h-21.503
	l-7.856-21.503l-7.856,21.503h-21.503l17.367,13.232l-7.856,23.984l20.263-14.887l20.262,14.887l-7.856-23.984L427.986,299.651z
	 M272.505,352.995c0-28.119,9.924-54.17,26.465-74.433C239.011,283.938,192.284,334.8,192.284,396
	c0,65.335,52.93,118.265,117.851,118.265c36.803,0,74.847-16.954,96.349-43.419c-3.722,0.414-12.405,0.414-16.127,0.414
	C325.436,470.846,272.505,417.916,272.505,352.995z M310.135,503.1c-59.132,0-107.1-47.967-107.1-107.513
	c0-47.554,30.187-87.665,73.192-101.724c-9.097,18.194-14.473,38.457-14.473,59.132c0,67.403,51.689,122.814,117.438,128.189
	C359.757,494.83,334.946,503.1,310.135,503.1z"/>
<path id="XMLID_2_" display="none" fill="#5D5E5E" d="M404.003,396.827l30.187-30.6c2.895-2.895,2.895-7.443,0-10.338
	s-7.443-2.895-9.925,0l-30.187,30.6c-2.895,2.895-2.895,7.443,0,10.338C396.56,399.722,401.108,399.722,404.003,396.827z
	 M473.06,468.365h-64.095c0-47.968-38.457-86.838-85.598-86.838c-47.14,0-85.597,38.871-85.597,86.838h-64.508
	c-4.135,0-7.03,3.308-7.03,7.443c0,4.135,3.308,7.442,7.03,7.442H473.06c4.135,0,7.029-3.308,7.029-7.442
	C480.503,471.673,477.194,468.365,473.06,468.365z M251.83,468.365c0-40.111,31.841-72.365,71.538-72.365
	c39.697,0,71.538,32.254,71.538,72.365H251.83z M242.319,396.827c2.895,2.895,7.443,2.895,9.924,0c2.895-2.895,2.895-7.443,0-10.338
	l-30.187-30.6c-2.895-2.895-7.443-2.895-9.924,0c-2.895,2.895-2.895,7.443,0,10.338L242.319,396.827z M315.925,316.192v43.419
	c0,4.135,3.308,7.443,7.029,7.443c4.135,0,7.029-3.308,7.029-7.443v-43.419c0-4.135-3.308-7.443-7.029-7.443
	C319.232,309.162,315.925,312.47,315.925,316.192z"/>
<path id="XMLID_14_" display="none" fill="#5D5E5E" d="M251.83,333.56c2.481,2.481,6.616,2.481,9.098,0
	c2.481-2.481,2.481-6.616,0-9.098l-26.878-26.878c-2.481-2.481-6.616-2.481-9.098,0c-2.481,2.481-2.481,6.616,0,9.097L251.83,333.56
	z M394.492,333.56l26.878-26.878c2.481-2.481,2.481-6.616,0-9.097c-2.48-2.481-6.616-2.481-9.097,0l-26.879,26.878
	c-2.481,2.481-2.481,6.616,0,9.098C387.876,336.041,392.011,336.041,394.492,333.56z M234.875,396c0-3.308-2.895-6.203-6.203-6.203
	h-37.629c-3.308,0-6.203,2.895-6.203,6.203c0,3.309,2.895,6.203,6.203,6.203h37.629C232.395,402.203,234.875,399.309,234.875,396z
	 M323.367,307.922c3.309,0,6.203-2.895,6.203-6.203v-38.043c0-3.308-2.895-6.203-6.203-6.203c-3.308,0-6.202,2.895-6.202,6.203
	v37.63C316.751,305.027,319.646,307.922,323.367,307.922z M251.83,458.44l-26.878,26.879c-2.481,2.48-2.481,6.616,0,9.097
	c2.481,2.481,6.616,2.481,9.098,0l26.878-26.878c2.481-2.481,2.481-6.616,0-9.098C258.446,455.959,254.311,455.959,251.83,458.44z
	 M394.492,458.44c-2.481-2.481-6.616-2.481-9.098,0s-2.481,6.616,0,9.098l26.879,26.878c2.48,2.481,6.616,2.481,9.097,0
	c2.481-2.48,2.481-6.616,0-9.097L394.492,458.44z M323.367,320.327c-41.765,0-75.673,33.908-75.673,75.673
	s33.908,75.673,75.673,75.673c41.766,0,75.674-33.908,75.674-75.673C398.627,354.235,364.719,320.327,323.367,320.327z
	 M323.367,458.854c-34.735,0-62.854-28.119-62.854-62.854s28.119-62.854,62.854-62.854c34.735,0,62.854,28.119,62.854,62.854
	S358.103,458.854,323.367,458.854z M323.367,484.078c-3.308,0-6.202,2.895-6.202,6.203v37.63c0,3.308,2.895,6.202,6.202,6.202
	c3.309,0,6.203-2.895,6.203-6.202v-37.63C329.57,486.973,326.676,484.078,323.367,484.078z M455.278,389.797h-37.63
	c-3.308,0-6.202,2.895-6.202,6.203c0,3.309,2.895,6.203,6.202,6.203h37.63c3.309,0,6.203-2.895,6.203-6.203
	C461.481,392.692,459,389.797,455.278,389.797z"/>
<path id="XMLID_25_" display="none" fill="#5D5E5E" d="M411.032,442.313c0-36.39-39.697-36.39-39.697-88.078
	c0-21.503-12.405-39.697-30.187-47.554c0.414-1.241,0.414-2.895,0.414-4.135c0-11.578-8.685-20.676-19.849-20.676
	c-10.752,0-19.849,9.098-19.849,20.676c0,1.241,0,2.895,0.413,4.135c-16.954,8.27-29.359,26.465-29.359,47.967
	c0,51.689-39.697,51.689-39.697,88.078c0,15.714,24.811,28.946,59.546,33.908c0,0.827,0,1.241,0,2.068
	c0,16.954,13.232,31.013,29.773,31.013c16.54,0,29.772-14.059,29.772-31.013c0-0.827,0-1.241,0-2.068
	C386.222,471.673,411.032,458.44,411.032,442.313z M322.127,292.622c5.376,0,9.925,4.549,9.925,10.338s-4.136,10.338-9.925,10.338
	c-5.376,0-9.924-4.549-9.924-10.338S316.751,292.622,322.127,292.622z M257.619,414.607c11.165-12.404,25.224-27.291,25.224-59.959
	c0-17.367,10.338-32.254,24.397-38.457c3.722,4.549,9.098,7.443,14.887,7.443s11.165-2.895,14.887-7.443
	c14.473,6.203,24.397,21.089,24.397,38.457c0,32.254,14.06,47.555,25.224,59.959c2.068,2.482,4.136,4.549,5.79,6.617
	c-9.512,9.511-37.217,16.127-70.711,16.127c-33.082,0-61.2-7.03-70.711-16.127C253.484,419.156,255.551,416.676,257.619,414.607z
	 M322.127,499.378c-10.751,0-19.849-9.097-19.849-20.675c0-0.414,0-0.414,0-0.827c6.203,0.413,12.819,0.827,19.849,0.827
	c6.616,0,13.232-0.414,19.849-0.827c0,0.413,0,0.413,0,0.827C341.976,490.281,333.292,499.378,322.127,499.378z M322.127,468.365
	c-51.275,0-78.981-16.954-78.981-26.052c0-5.376,1.241-9.924,3.308-14.06c13.646,11.165,42.178,19.021,75.673,19.021
	c33.495,0,62.027-7.856,75.673-19.021c2.067,4.136,3.309,8.271,3.309,14.06C401.108,451.411,373.402,468.365,322.127,468.365z"/>
<path id="XMLID_31_" display="none" fill="#5D5E5E" d="M389.116,374.497v-32.254c0-35.562-28.532-64.095-63.681-64.095
	c-35.149,0-63.682,28.946-63.682,64.095v32.254c-11.578,0-21.089,9.511-21.089,21.503v96.349c0,11.992,9.511,21.503,21.089,21.503
	h127.362c11.578,0,21.089-9.511,21.089-21.503V396C410.205,384.008,400.694,374.497,389.116,374.497z M272.505,342.243
	c0-29.773,23.57-53.757,52.93-53.757c29.359,0,52.93,23.984,52.93,53.757v32.254h-105.86V342.243z M399.454,492.349
	c0,5.789-4.549,10.751-10.751,10.751H261.754c-5.789,0-10.751-4.962-10.751-10.751V396c0-5.789,4.548-10.751,10.751-10.751h116.611
	h10.751c5.789,0,10.751,4.962,10.751,10.751v96.349H399.454z M325.436,417.503c-11.579,0-21.09,9.511-21.09,21.503
	c0,5.375,2.067,10.337,5.376,14.059c0,0.414,0,1.241,0,1.654c0,8.684,7.029,16.127,15.714,16.127
	c8.684,0,15.713-7.029,15.713-16.127c0-0.413,0-1.24,0-1.654c3.309-3.722,5.376-8.684,5.376-14.059
	C346.524,427.014,337.014,417.503,325.436,417.503z M330.811,448.103v7.03c0,2.895-2.48,5.375-5.375,5.375s-5.376-2.48-5.376-5.375
	v-7.03c-3.309-1.654-5.376-5.376-5.376-9.097c0-5.79,4.549-10.752,10.752-10.752c5.789,0,10.751,4.962,10.751,10.752
	C335.773,442.727,333.705,446.035,330.811,448.103z"/>
<path id="XMLID_37_" display="none" fill="#5D5E5E" d="M321.714,283.111c-64.095,0-115.784,51.689-115.784,115.784
	s51.689,115.784,115.784,115.784s115.783-51.689,115.783-115.784C437.497,335.213,385.395,283.111,321.714,283.111z
	 M321.714,504.341c-58.306,0-105.446-47.141-105.446-105.446c0-27.292,10.338-51.689,27.292-70.711l148.451,148.451
	C373.402,494.003,348.592,504.341,321.714,504.341z M399.454,469.605L251.003,321.154c18.608-16.954,43.418-27.292,70.711-27.292
	c58.305,0,105.445,47.141,105.445,105.446C426.746,426.187,416.408,450.997,399.454,469.605z"/>
<path id="XMLID_41_" display="none" fill="#5D5E5E" d="M329.57,442.313c-3.309,0-5.376-0.413-6.616-1.654
	c-1.24-0.827-2.067-2.895-2.067-5.789c0-1.24,0-2.895,0.413-4.962c0.414-2.067,0.827-4.135,1.241-5.789l6.202-21.503
	c0.413-2.067,0.827-4.136,1.24-6.616c0.414-2.481,0.414-4.135,0.414-4.962c0-4.549-1.654-8.271-4.962-11.165
	c-3.309-2.895-7.857-4.135-14.06-4.135c-3.309,0-7.03,0.414-10.752,1.654c-3.721,1.24-7.443,2.481-11.578,4.135l-1.654,6.616
	c1.24-0.413,2.481-0.827,4.548-1.24c1.654-0.414,3.308-0.827,4.962-0.827c3.308,0,5.375,0.414,6.616,1.654
	c1.241,1.24,1.654,2.895,1.654,5.789c0,1.654,0,3.308-0.413,4.961c-0.414,1.654-0.827,3.723-1.241,5.79l-6.202,21.503
	c-0.414,2.067-0.827,4.135-1.241,6.202c-0.414,1.654-0.414,3.722-0.414,5.376c0,4.549,1.654,7.856,4.962,10.751
	c3.309,2.895,7.857,4.136,14.06,4.136c4.136,0,7.443-0.414,10.338-1.654c2.895-0.827,7.03-2.481,11.992-4.549l1.654-6.616
	c-0.827,0.413-2.068,0.827-4.136,1.24C332.878,442.313,331.225,442.313,329.57,442.313z M325.849,336.868
	c-4.135,0-7.443,1.24-10.338,4.135c-2.895,2.481-4.549,5.789-4.549,9.511s1.654,7.03,4.549,9.511s6.616,4.135,10.338,4.135
	c4.135,0,7.443-1.241,10.338-4.135c2.895-2.481,4.549-5.789,4.549-9.511s-1.654-7.03-4.549-9.511
	C333.292,338.108,329.983,336.868,325.849,336.868z M314.271,278.976c-64.095,0-115.784,51.689-115.784,115.784
	c0,64.095,51.689,115.784,115.784,115.784s115.783-51.688,115.783-115.784C430.054,331.078,378.365,278.976,314.271,278.976z
	 M314.271,500.205c-58.306,0-105.446-47.141-105.446-105.446s47.141-105.032,105.446-105.032s105.445,47.141,105.445,105.446
	C419.716,453.479,372.576,500.205,314.271,500.205z"/>
<g id="XMLID_46_" display="none">
	<g id="XMLID_95_" display="inline">
		<path id="XMLID_96_" fill="#5D5E5E" d="M267.543,296.343l-81.049,185.254l12.405,1.653l20.676-47.967h98.417l20.676,47.967
			l11.991-1.653l-80.635-185.254H267.543z M224.538,424.119l43.832-101.725h0.827l43.832,101.725H224.538z M437.497,370.362h-6.616
			L382.5,481.598l13.646,0.826l11.165-25.638h54.171l11.164,25.638l13.646-0.826L437.497,370.362z M411.446,446.035l22.329-53.343
			h0.414l22.743,53.343H411.446z"/>
	</g>
</g>
<path id="XMLID_52_" display="none" fill="#5D5E5E" d="M310.135,280.216c-64.094,0-115.783,51.689-115.783,115.784
	s51.689,115.784,115.783,115.784c64.095,0,115.784-51.689,115.784-115.784S374.229,280.216,310.135,280.216z M383.74,359.197
	l-96.762,98.416c-0.414,0.414-1.241,0.414-1.654,0.414c-0.827,0-1.24-0.414-1.654-0.827l-51.276-51.689
	c-0.827-0.827-0.827-1.653-0.827-2.481c0.414-0.826,1.241-1.654,2.068-1.654h20.675c0.827,0,1.241,0.414,1.654,0.828l28.532,28.945
	l74.433-75.673c0.414-0.414,1.24-0.827,1.654-0.827h20.676c0.827,0,2.067,0.414,2.067,1.654
	C384.567,357.13,384.567,358.37,383.74,359.197z"/>
<path id="XMLID_55_" display="none" fill="#5D5E5E" d="M308.895,280.216c-64.095,0-115.784,51.689-115.784,115.784
	S244.8,511.784,308.895,511.784S424.679,460.095,424.679,396S372.576,280.216,308.895,280.216z M369.268,456.786
	c-2.481,2.481-6.616,2.481-9.098,0l-49.621-50.034l-50.035,50.034c-2.481,2.481-6.616,2.481-9.098,0
	c-2.481-2.48-2.481-6.616,0-9.097l50.035-50.035l-50.035-50.035c-2.481-2.481-2.481-6.616,0-9.098c2.481-2.481,6.616-2.481,9.098,0
	l50.035,50.035l50.035-50.035c2.48-2.481,6.616-2.481,9.097,0c2.481,2.481,2.481,6.616,0,9.098l-50.448,50.035l50.035,50.035
	C371.749,450.17,371.749,454.306,369.268,456.786z"/>
<path id="XMLID_47_" display="none" fill="#5D5E5E" d="M399.454,412.127c-2.895,0-4.962,2.48-4.962,4.963
	c0,45.486-37.217,82.702-82.703,82.702s-82.703-37.216-82.703-82.702c0-45.487,37.216-82.703,82.703-82.703h34.322l-31.841,31.84
	l0,0c-1.241,0.827-2.481,2.481-2.481,4.135c0,2.895,2.481,4.962,4.962,4.962c1.241,0,2.068-0.414,2.895-0.827l0,0l0.414-0.413
	c0.413-0.414,0.413-0.414,0.827-0.827l40.11-40.111l0,0c1.241-0.827,2.481-2.481,2.481-4.135c0-1.654-0.827-3.308-2.481-4.135l0,0
	l-40.11-40.111c-0.414-0.413-0.414-0.413-0.827-0.827l-0.414-0.414l0,0c-0.826-0.414-1.653-0.827-2.895-0.827
	c-2.895,0-4.962,2.481-4.962,4.962c0,1.654,0.827,3.309,2.481,4.135l0,0l31.841,31.841h-34.322
	c-51.275,0-93.041,41.765-93.041,93.041c0,51.275,41.765,93.04,93.041,93.04s93.041-41.765,93.041-93.04
	C404.83,414.195,402.349,412.127,399.454,412.127z"/>
<path id="XMLID_50_" display="none" fill="none" stroke="#5D5E5E" stroke-width="2" stroke-miterlimit="10" d="M210.479,276.495
	h197.659c17.368,0,31.427,14.06,31.427,31.427v128.603c0,17.367-14.059,31.427-31.427,31.427h-65.335l-59.546,60.373v-59.959
	h-72.365c-17.368,0-31.427-14.06-31.427-31.428V307.922C178.638,290.554,193.111,276.495,210.479,276.495z"/>
<g id="XMLID_1_" display="none">
	<path id="XMLID_71_" display="inline" fill="none" stroke="#5D5E5E" stroke-width="2" stroke-miterlimit="10" d="M263.822,363.333
		c9.097,0,16.541,7.443,16.541,16.541s-7.443,16.541-16.541,16.541c-9.098,0-16.541-7.443-16.541-16.541
		S254.724,363.333,263.822,363.333z"/>
	<path id="XMLID_69_" display="inline" fill="none" stroke="#5D5E5E" stroke-width="2" stroke-miterlimit="10" d="M313.443,363.333
		c9.098,0,16.54,7.443,16.54,16.541s-7.442,16.541-16.54,16.541s-16.541-7.443-16.541-16.541S304.346,363.333,313.443,363.333z"/>
	<path id="XMLID_67_" display="inline" fill="none" stroke="#5D5E5E" stroke-width="2" stroke-miterlimit="10" d="M363.064,363.333
		c9.098,0,16.541,7.443,16.541,16.541s-7.443,16.541-16.541,16.541c-9.097,0-16.54-7.443-16.54-16.541
		S353.968,363.333,363.064,363.333z"/>
	<path id="XMLID_65_" display="inline" fill="none" stroke="#5D5E5E" stroke-width="2" stroke-miterlimit="10" d="M212.546,280.63
		h197.659c17.368,0,31.428,14.06,31.428,31.427v128.603c0,17.368-14.06,31.428-31.428,31.428H344.87l-59.546,60.786V472.5h-72.365
		c-17.368,0-31.427-14.06-31.427-31.427V312.057C180.706,294.689,195.178,280.63,212.546,280.63z"/>
</g>
<g id="XMLID_144_" display="none">
	<path id="XMLID_145_" display="inline" fill="none" stroke="#5D5E5E" stroke-width="2" stroke-miterlimit="10" d="M208.411,280.63
		h197.66c17.367,0,31.427,14.06,31.427,31.427v128.603c0,17.368-14.06,31.428-31.427,31.428h-65.335l-59.546,60.786V472.5h-72.365
		c-17.368,0-31.427-14.06-31.427-31.427V312.057C176.57,294.689,191.043,280.63,208.411,280.63z"/>
	<path id="XMLID_166_" display="inline" fill="#5D5E5E" d="M255.965,394.346h41.765v41.765h24.812v-41.765h41.765v-24.811h-41.352
		v-42.178h-24.811v41.765h-42.179V394.346z"/>
</g>
<g id="XMLID_73_" display="none">
	<g id="XMLID_74_" display="inline">
		<g id="XMLID_195_">
			
				<circle id="XMLID_196_" fill="none" stroke="#5D5E5E" stroke-width="2" stroke-miterlimit="10" stroke-dasharray="5.8889,5.8889" cx="307.654" cy="394.346" r="124.054"/>
		</g>
	</g>
	<path id="XMLID_76_" display="inline" fill="#5D5E5E" d="M366.786,457.2c-2.48,2.48-6.616,2.48-9.097,0l-50.035-50.035
		L257.619,457.2c-2.481,2.48-6.616,2.48-9.098,0c-2.481-2.481-2.481-6.616,0-9.098l50.035-50.035l-49.622-49.622
		c-2.481-2.481-2.481-6.616,0-9.097s6.616-2.481,9.097,0l50.035,50.035l50.035-50.035c2.481-2.481,6.616-2.481,9.098,0
		c2.48,2.481,2.48,6.616,0,9.097l-50.449,50.035l50.035,50.036C369.268,450.997,369.268,454.719,366.786,457.2z"/>
</g>
<g id="XMLID_126_" display="none">
	<g id="XMLID_146_" display="inline">
		<g id="XMLID_213_">
			
				<circle id="XMLID_214_" fill="none" stroke="#5D5E5E" stroke-width="2" stroke-miterlimit="10" stroke-dasharray="5.8889,5.8889" cx="315.925" cy="394.346" r="124.054"/>
		</g>
	</g>
	<path id="XMLID_164_" display="inline" fill="#5D5E5E" d="M264.235,410.887H306v41.765h24.811v-41.765h41.766v-24.811h-41.352
		v-42.178h-24.812v41.765h-42.178V410.887z"/>
</g>
<g id="XMLID_147_" display="none">
	<g id="XMLID_193_" display="inline">
		<g id="XMLID_216_">
			
				<circle id="XMLID_217_" fill="none" stroke="#5D5E5E" stroke-width="2" stroke-miterlimit="10" stroke-dasharray="5.8889,5.8889" cx="316.338" cy="398.481" r="124.054"/>
		</g>
	</g>
	<path id="XMLID_198_" display="inline" fill="#5D5E5E" d="M330.397,338.521l-4.549,89.732h-19.021l-4.549-89.732H330.397
		L330.397,338.521z M316.751,470.019c-9.097,0-16.127-7.029-16.127-16.127c0-9.097,7.03-16.127,16.127-16.127
		c9.098,0,16.127,7.03,16.127,16.127C332.465,462.989,325.436,470.019,316.751,470.019z"/>
</g>
<g id="XMLID_79_" display="none">
	<g id="XMLID_82_" display="inline">
		<g id="XMLID_219_">
			
				<circle id="XMLID_220_" fill="none" stroke="#5D5E5E" stroke-width="2" stroke-miterlimit="10" stroke-dasharray="5.8889,5.8889" cx="304.76" cy="394.346" r="124.054"/>
		</g>
	</g>
	<path id="XMLID_80_" display="inline" fill="#5D5E5E" d="M382.913,355.062l-97.175,98.417c-0.414,0.413-1.241,0.827-1.654,0.827
		c-0.827,0-1.241-0.414-1.654-0.827l-51.275-52.104c-0.827-0.826-0.827-1.653-0.414-2.48s1.24-1.654,2.067-1.654h20.676
		c0.827,0,1.24,0.414,1.654,0.827l28.533,28.946l74.432-75.673c0.414-0.413,1.241-0.827,1.654-0.827h20.676
		c0.827,0,2.067,0.414,2.067,1.654C383.74,353.408,383.74,354.235,382.913,355.062z"/>
</g>
<path id="XMLID_84_" display="none" fill="#5D5E5E" d="M304.76,274.427c-66.989,0-121.573,54.584-121.573,121.573
	s54.584,121.573,121.573,121.573S426.332,462.989,426.332,396S372.162,274.427,304.76,274.427z M304.76,506.408
	c-60.787,0-110.408-49.622-110.408-110.408c0-61.2,49.622-110.408,110.408-110.408c61.199,0,110.408,49.622,110.408,110.408
	C415.168,456.786,365.959,506.408,304.76,506.408z M358.103,391.865L358.103,391.865l-0.827-0.414c0,0-0.413,0-0.413-0.413
	l-76.086-43.419l0,0c-0.827-0.827-2.068-1.241-3.308-1.241c-2.895,0-5.376,2.481-5.376,5.375v88.492
	c0,2.895,2.481,5.376,5.376,5.376c1.24,0,2.481-0.414,3.308-1.241l0,0l76.086-43.418c0,0,0.413,0,0.413-0.414l0.827-0.414l0,0
	c1.241-0.826,2.067-2.48,2.067-4.135S359.344,392.692,358.103,391.865z"/>
<g id="XMLID_83_" display="none">
	<path id="XMLID_109_" display="inline" fill="none" stroke="#5D5E5E" stroke-width="2" stroke-miterlimit="10" d="M306,266.157
		c77.74,0,140.595,62.027,140.595,138.527S383.74,543.211,306,543.211c-77.741,0-140.595-62.027-140.595-138.527
		S228.259,266.157,306,266.157z"/>
	<polygon id="XMLID_111_" display="inline" fill="#5D5E5E" points="356.862,395.586 295.249,336.868 284.911,346.378 
		339.081,398.48 284.911,450.584 295.249,460.508 356.862,401.375 353.554,398.48 	"/>
</g>
<g id="XMLID_93_" display="none">
	<path id="XMLID_115_" display="inline" fill="none" stroke="#5D5E5E" stroke-width="2" stroke-miterlimit="10" d="M305.173,540.729
		c-77.74,0-140.594-62.026-140.594-138.526c0-76.5,62.854-138.527,140.594-138.527s140.595,62.027,140.595,138.527
		C445.768,478.703,382.913,540.729,305.173,540.729z"/>
	<polygon id="XMLID_94_" display="inline" fill="#5D5E5E" points="254.311,410.887 315.925,470.019 326.262,460.095 
		271.678,407.992 326.262,356.303 315.925,346.378 254.311,405.098 257.206,407.992 	"/>
</g>
<g id="XMLID_121_" display="none">
	<path id="XMLID_123_" display="inline" fill="none" stroke="#5D5E5E" stroke-width="2" stroke-miterlimit="10" d="M169.541,398.48
		c0-77.74,62.027-140.594,138.527-140.594s138.527,62.854,138.527,140.594c0,77.741-62.027,140.596-138.527,140.596
		S169.541,476.222,169.541,398.48z"/>
	<polygon id="XMLID_122_" display="inline" fill="#5D5E5E" points="299.384,347.619 240.251,409.232 250.176,419.57 302.278,365.4 
		354.381,419.57 363.892,409.232 305.173,347.619 302.278,350.927 	"/>
</g>
<g id="XMLID_117_" display="none">
	<path id="XMLID_119_" display="inline" fill="none" stroke="#5D5E5E" stroke-width="2" stroke-miterlimit="10" d="M446.595,398.48
		c0,77.741-62.027,140.596-138.527,140.596S169.541,476.222,169.541,398.48c0-77.74,62.027-140.594,138.527-140.594
		S446.595,320.741,446.595,398.48z"/>
	<polygon id="XMLID_118_" display="inline" fill="#5D5E5E" points="316.751,449.344 375.884,387.729 365.959,377.806 
		313.856,431.976 262.167,377.806 252.243,387.729 310.962,449.344 313.856,446.448 	"/>
</g>
<path id="XMLID_129_" display="none" fill="#5D5E5E" d="M307.24,262.021c-76.5,0-138.527,62.027-138.527,138.527
	s62.027,138.527,138.527,138.527c76.5,0,138.527-62.027,138.527-138.527S383.74,262.021,307.24,262.021z M301.451,466.711
	c-9.511,0-17.367-7.856-17.367-17.367c0-9.512,7.856-17.368,17.367-17.368s17.368,7.856,17.368,17.368
	C318.819,458.854,310.962,466.711,301.451,466.711z M315.098,403.029l-3.722,18.608h-20.263l-4.135-28.532
	c12.405-5.789,27.292-16.127,27.292-27.706c0-11.578-5.376-15.713-13.232-15.713c-7.857,0-14.887,2.895-23.984,8.684l-11.579-23.57
	c13.232-8.27,25.638-11.578,39.697-11.578c21.089,0,41.765,10.338,41.765,35.148C346.938,380.287,331.638,394.346,315.098,403.029z"
	/>
<path id="XMLID_132_" display="none" fill="#5D5E5E" d="M310.962,267.397c-74.846,0-135.632,60.786-135.632,135.632
	c0,74.847,60.787,135.633,135.632,135.633c74.847,0,135.633-60.786,135.633-135.633
	C446.595,328.184,385.809,267.397,310.962,267.397z M324.608,338.935l-4.549,89.733h-19.021l-4.549-89.733H324.608z
	 M310.962,470.846c-9.097,0-16.127-7.029-16.127-16.127c0-9.097,7.03-16.127,16.127-16.127c9.098,0,16.127,7.029,16.127,16.127
	C326.676,463.402,319.646,470.846,310.962,470.846z"/>
<g id="XMLID_138_" display="none">
	<path id="XMLID_134_" display="inline" fill="none" stroke="#5D5E5E" stroke-width="4" stroke-miterlimit="10" d="M291.113,271.946
		c-60.786,0-109.994,49.208-109.994,109.995s49.208,109.995,109.994,109.995c60.787,0,109.995-49.209,109.995-109.995
		S351.9,271.946,291.113,271.946z"/>
	<path id="XMLID_136_" display="inline" fill="#5D5E5E" d="M436.67,528.324l-62.026-62.027c-2.895-2.895-7.443-2.895-10.338,0
		s-2.895,7.443,0,10.338l62.026,62.027c2.895,2.895,7.443,2.895,10.338,0S439.564,531.219,436.67,528.324z"/>
</g>
<path id="XMLID_125_" fill="#5D5E5E" d="M398.214,405.511c0-1.653-0.827-2.895-2.481-3.722l0,0l-26.878-12.819l26.878-12.819l0,0
	c1.24-0.827,2.481-2.067,2.481-3.722c0-1.654-0.827-2.895-2.481-3.722l0,0l-86.838-41.351l0,0c-0.413-0.414-1.24-0.414-1.654-0.414
	c-0.827,0-1.24,0-1.653,0.414l0,0l-86.838,41.351l0,0c-1.24,0.827-2.481,2.068-2.481,3.722c0,1.654,0.827,2.895,2.481,3.722l0,0
	l26.878,12.819l-26.878,12.819l0,0c-1.24,0.827-2.481,2.068-2.481,3.722c0,1.654,0.827,2.895,2.481,3.722l0,0l26.878,12.819
	l-26.878,12.818l0,0c-1.24,0.827-2.481,2.067-2.481,3.722s0.827,2.895,2.481,3.722l0,0l86.838,41.352l0,0
	c0.413,0.413,1.24,0.413,1.653,0.413c0.827,0,1.241,0,1.654-0.413l0,0l86.838-41.352l0,0c1.24-0.827,2.481-2.067,2.481-3.722
	s-0.827-2.895-2.481-3.722l0,0l-26.878-12.818l26.878-12.819l0,0C397.387,408.818,398.214,407.165,398.214,405.511z M229.914,372.43
	l77.327-36.803l77.327,36.803l-77.327,36.803L229.914,372.43z M384.567,438.592l-77.327,36.803l-77.327-36.803l25.224-11.992
	l50.449,23.984l0,0c0.413,0.413,1.24,0.413,1.653,0.413c0.827,0,1.241,0,1.654-0.413l0,0l50.449-23.984L384.567,438.592z
	 M307.24,442.313l-77.327-36.803l25.224-11.992l50.449,23.984l0,0c0.413,0.413,1.24,0.413,1.653,0.413c0.827,0,1.241,0,1.654-0.413
	l0,0l50.449-23.984l25.224,11.992L307.24,442.313z"/>
<path id="XMLID_152_" display="none" fill="#5D5E5E" d="M309.309,466.297c2.48,0,4.135-1.653,4.135-4.135v-99.243
	c0-2.481-1.654-4.135-4.135-4.135c-2.481,0-4.136,1.654-4.136,4.135v99.243C305.173,464.644,306.827,466.297,309.309,466.297z
	 M334.119,466.297c2.48,0,4.135-1.653,4.135-4.135l6.203-99.243c0-2.481-1.654-4.135-4.136-4.135c-2.48,0-4.135,1.654-4.135,4.135
	l-6.203,99.243C329.983,464.229,331.638,466.297,334.119,466.297z M379.605,333.973h-41.352v-16.541
	c0-4.549-3.722-8.271-8.271-8.271h-41.351c-4.548,0-8.27,3.722-8.27,8.271v16.541h-41.352c-2.481,0-4.135,1.654-4.135,4.135
	c0,2.481,1.654,4.135,4.135,4.135h8.271l8.27,132.324c1.241,9.098,7.443,16.541,16.541,16.541h74.433
	c9.098,0,14.887-7.443,16.54-16.541l8.271-132.324h8.271c2.481,0,4.135-1.654,4.135-4.135
	C383.74,335.627,381.673,333.973,379.605,333.973z M288.632,317.433h41.351v16.541h-41.351V317.433z M354.795,474.567
	c-0.414,4.549-3.722,8.271-8.271,8.271h-74.433c-4.548,0-7.443-3.722-8.27-8.271l-8.271-132.324h107.513L354.795,474.567z
	 M284.497,466.297c2.481,0,4.135-2.067,4.135-4.135l-6.203-99.243c0-2.481-2.067-4.135-4.135-4.135
	c-2.481,0-4.135,2.068-4.135,4.135l6.203,99.243C280.362,464.644,282.43,466.297,284.497,466.297z"/>
<path id="XMLID_159_" display="none" fill="#5D5E5E" d="M308.067,287.659c-63.268,0-114.543,51.276-114.543,114.544
	c0,63.268,51.275,114.543,114.543,114.543S422.61,465.471,422.61,402.203C422.61,338.935,371.335,287.659,308.067,287.659z
	 M308.067,505.994c-57.478,0-103.792-46.727-103.792-103.791c0-57.065,46.727-103.792,103.792-103.792
	c57.479,0,103.792,46.727,103.792,103.792C411.859,459.268,365.546,505.994,308.067,505.994z M354.795,396.827h-26.879
	c-2.067-7.443-7.443-12.819-14.887-14.887v-57.892c0-2.895-2.48-5.376-5.375-5.376s-5.376,2.481-5.376,5.376v57.892
	c-9.097,2.481-15.713,10.338-15.713,20.263c0,11.578,9.511,20.675,20.675,20.675c9.511,0,17.781-6.616,20.263-15.713h26.878
	c2.895,0,5.376-2.481,5.376-5.376C360.17,399.309,357.689,396.827,354.795,396.827z M308.067,412.541
	c-5.789,0-10.338-4.549-10.338-10.338c0-5.79,4.549-10.338,10.338-10.338s10.338,4.549,10.338,10.338
	C318.405,407.992,313.856,412.541,308.067,412.541z"/>
<path id="XMLID_148_" display="none" fill="#5D5E5E" d="M295.249,488.627h-45.9c-3.308,0-5.789,2.481-5.789,5.789
	c0,3.309,2.481,5.789,5.789,5.789h45.9c3.308,0,5.79-2.48,5.79-5.789C301.038,491.521,298.557,488.627,295.249,488.627z
	 M318.405,454.306h-69.057c-3.308,0-5.789,2.48-5.789,5.789c0,3.308,2.481,5.789,5.789,5.789h69.057
	c3.309,0,5.789-2.481,5.789-5.789C324.194,456.786,321.3,454.306,318.405,454.306z M249.349,397.24h23.157
	c3.308,0,5.789-2.481,5.789-5.789s-2.481-5.789-5.789-5.789h-23.157c-3.308,0-5.789,2.481-5.789,5.789
	C243.56,394.346,246.041,397.24,249.349,397.24z M243.56,425.773c0,3.308,2.481,5.789,5.789,5.789h69.057
	c3.309,0,5.789-2.481,5.789-5.789c0-3.309-2.48-5.789-5.789-5.789h-69.057C246.041,419.984,243.56,422.465,243.56,425.773z
	 M375.884,282.284h-86.424c-12.819,0-23.157,10.338-23.157,22.743v17.368c0,3.308,2.481,5.789,5.789,5.789s5.789-2.481,5.789-5.789
	v-17.368c0-6.203,4.962-11.578,11.579-11.578h69.057v34.322c0,6.203,4.962,11.578,11.578,11.578h34.321v114.543
	c0,6.203-4.962,11.579-11.578,11.579h-17.367c-3.309,0-5.789,2.48-5.789,5.789c0,3.308,2.48,5.789,5.789,5.789h17.367
	c12.819,0,23.156-10.338,23.156-22.743V328.184L375.884,282.284z M370.095,328.184v-33.494l29.772,33.494H370.095z M231.981,339.762
	c-12.819,0-23.157,10.338-23.157,22.743V511.37c0,12.819,10.338,22.743,23.157,22.743h103.378c12.819,0,23.157-10.338,23.157-22.743
	V385.662l-40.111-45.9H231.981z M346.938,511.784c0,6.202-4.962,11.578-11.578,11.578H231.981c-6.203,0-11.578-4.962-11.578-11.578
	V362.919c0-6.203,4.962-11.579,11.578-11.579h69.057v34.322c0,6.203,4.962,11.578,11.578,11.578h34.321V511.784L346.938,511.784z
	 M312.616,385.662v-33.495l29.772,33.495H312.616z"/>
<path id="XMLID_179_" display="none" fill="#5D5E5E" d="M269.197,429.081l35.148-6.203l95.108-95.107
	c3.722-3.722,6.203-9.098,6.203-14.473c0-11.579-9.098-20.676-20.676-20.676c-5.79,0-10.752,2.481-14.474,6.203L275.4,393.933
	L269.197,429.081z M375.884,304.613c2.067-2.067,5.376-3.721,8.684-3.721c7.03,0,12.405,5.375,12.405,12.405
	c0,3.308-1.24,6.616-3.722,8.684l-5.375,5.376l-17.368-17.368L375.884,304.613z M364.719,315.778l17.368,17.368l-75.674,76.086
	v-9.098v-8.27h-8.27h-9.098L364.719,315.778z M282.43,400.135h15.3v15.301l-18.608,3.308L282.43,400.135z M401.521,354.648
	c-2.48,0-4.135,1.654-4.135,4.135v90.973c0,9.098-7.443,16.54-16.541,16.54H248.521c-9.097,0-16.541-7.442-16.541-16.54V317.433
	c0-9.098,7.443-16.541,16.541-16.541h90.973c2.481,0,4.136-1.654,4.136-4.135s-1.654-4.135-4.136-4.135h-90.973
	c-13.646,0-24.811,11.165-24.811,24.811v132.324c0,13.646,11.165,24.811,24.811,24.811h132.324
	c13.646,0,24.812-11.165,24.812-24.811v-90.973C405.657,356.303,403.589,354.648,401.521,354.648z"/>
<path id="XMLID_185_" display="none" fill="#5D5E5E" d="M307.24,372.016c-8.27,0-15.3,6.616-15.3,14.887
	c0,8.27,6.616,14.886,15.3,14.886c8.271,0,15.301-6.616,15.301-14.886C322.127,379.046,315.511,372.016,307.24,372.016z
	 M307.24,336.868c-28.119,0-50.862,22.33-50.862,50.035c0,28.119,22.743,50.449,50.862,50.449c28.119,0,50.862-22.33,50.862-50.035
	C357.689,359.611,334.946,336.868,307.24,336.868z M307.24,427.427c-22.33,0-40.524-17.78-40.524-40.11s18.194-40.111,40.524-40.111
	c22.33,0,40.524,17.781,40.524,40.111C347.765,409.232,329.57,427.427,307.24,427.427z M307.24,317.019
	c-61.613,0-111.648,50.035-111.648,70.297c0,20.262,50.035,70.297,111.648,70.297c61.614,0,111.649-50.035,111.649-70.297
	C418.89,367.054,368.854,317.019,307.24,317.019z M307.24,447.275c-56.237,0-101.311-43.005-101.311-60.373
	s45.486-60.373,101.311-60.373c56.238,0,101.312,43.005,101.312,60.373S363.064,447.275,307.24,447.275z"/>
</svg>
